<?xml version="1.0" encoding="UTF-8"?>
<!DOCTYPE svg PUBLIC "-//W3C//DTD SVG 1.1//EN" "http://www.w3.org/Graphics/SVG/1.1/DTD/svg11.dtd">
<svg version="1.1" xmlns="http://www.w3.org/2000/svg" xmlns:xlink="http://www.w3.org/1999/xlink" x="0" y="0" width="609" height="1058" viewBox="0, 0, 609, 1058">
  <g id="Pozadí"/>
  <g id="Mřížka">
    <g>
      <path d="M12.5,12.5 L96.5,12.5 L96.5,156.5 L12.5,156.5 L12.5,12.5 z" fill="#FFFFFF"/>
      <path d="M12.5,12.5 L96.5,12.5 L96.5,156.5 L12.5,156.5 L12.5,12.5 z" fill-opacity="0" stroke="#000000" stroke-width="1"/>
    </g>
    <g>
      <path d="M96.5,12.5 L180.5,12.5 L180.5,156.5 L96.5,156.5 L96.5,12.5 z" fill="#FFFFFF"/>
      <path d="M96.5,12.5 L180.5,12.5 L180.5,156.5 L96.5,156.5 L96.5,12.5 z" fill-opacity="0" stroke="#000000" stroke-width="1"/>
    </g>
    <g>
      <path d="M180.5,12.5 L264.5,12.5 L264.5,156.5 L180.5,156.5 L180.5,12.5 z" fill="#FFFFFF"/>
      <path d="M180.5,12.5 L264.5,12.5 L264.5,156.5 L180.5,156.5 L180.5,12.5 z" fill-opacity="0" stroke="#000000" stroke-width="1"/>
    </g>
    <g>
      <path d="M264.5,12.5 L348.5,12.5 L348.5,156.5 L264.5,156.5 L264.5,12.5 z" fill="#FFFFFF"/>
      <path d="M264.5,12.5 L348.5,12.5 L348.5,156.5 L264.5,156.5 L264.5,12.5 z" fill-opacity="0" stroke="#000000" stroke-width="1"/>
    </g>
    <g>
      <path d="M348.5,12.5 L432.5,12.5 L432.5,156.5 L348.5,156.5 L348.5,12.5 z" fill="#FFFFFF"/>
      <path d="M348.5,12.5 L432.5,12.5 L432.5,156.5 L348.5,156.5 L348.5,12.5 z" fill-opacity="0" stroke="#000000" stroke-width="1"/>
    </g>
    <g>
      <path d="M432.5,12.5 L516.5,12.5 L516.5,156.5 L432.5,156.5 L432.5,12.5 z" fill="#FFFFFF"/>
      <path d="M432.5,12.5 L516.5,12.5 L516.5,156.5 L432.5,156.5 L432.5,12.5 z" fill-opacity="0" stroke="#000000" stroke-width="1"/>
    </g>
    <g>
      <path d="M516.5,12.5 L600.5,12.5 L600.5,156.5 L516.5,156.5 L516.5,12.5 z" fill="#FFFFFF"/>
      <path d="M516.5,12.5 L600.5,12.5 L600.5,156.5 L516.5,156.5 L516.5,12.5 z" fill-opacity="0" stroke="#000000" stroke-width="1"/>
    </g>
    <g>
      <path d="M12.5,156.5 L96.5,156.5 L96.5,300.5 L12.5,300.5 L12.5,156.5 z" fill="#FFFFFF"/>
      <path d="M12.5,156.5 L96.5,156.5 L96.5,300.5 L12.5,300.5 L12.5,156.5 z" fill-opacity="0" stroke="#000000" stroke-width="1"/>
    </g>
    <g>
      <path d="M96.5,156.5 L180.5,156.5 L180.5,300.5 L96.5,300.5 L96.5,156.5 z" fill="#FFFFFF"/>
      <path d="M96.5,156.5 L180.5,156.5 L180.5,300.5 L96.5,300.5 L96.5,156.5 z" fill-opacity="0" stroke="#000000" stroke-width="1"/>
    </g>
    <g>
      <path d="M180.5,156.5 L264.5,156.5 L264.5,300.5 L180.5,300.5 L180.5,156.5 z" fill="#FFFFFF"/>
      <path d="M180.5,156.5 L264.5,156.5 L264.5,300.5 L180.5,300.5 L180.5,156.5 z" fill-opacity="0" stroke="#000000" stroke-width="1"/>
    </g>
    <g>
      <path d="M264.5,156.5 L348.5,156.5 L348.5,300.5 L264.5,300.5 L264.5,156.5 z" fill="#FFFFFF"/>
      <path d="M264.5,156.5 L348.5,156.5 L348.5,300.5 L264.5,300.5 L264.5,156.5 z" fill-opacity="0" stroke="#000000" stroke-width="1"/>
    </g>
    <g>
      <path d="M348.5,156.5 L432.5,156.5 L432.5,300.5 L348.5,300.5 L348.5,156.5 z" fill="#FFFFFF"/>
      <path d="M348.5,156.5 L432.5,156.5 L432.5,300.5 L348.5,300.5 L348.5,156.5 z" fill-opacity="0" stroke="#000000" stroke-width="1"/>
    </g>
    <g>
      <path d="M432.5,156.5 L516.5,156.5 L516.5,300.5 L432.5,300.5 L432.5,156.5 z" fill="#FFFFFF"/>
      <path d="M432.5,156.5 L516.5,156.5 L516.5,300.5 L432.5,300.5 L432.5,156.5 z" fill-opacity="0" stroke="#000000" stroke-width="1"/>
    </g>
    <g>
      <path d="M516.5,156.5 L600.5,156.5 L600.5,300.5 L516.5,300.5 L516.5,156.5 z" fill="#FFFFFF"/>
      <path d="M516.5,156.5 L600.5,156.5 L600.5,300.5 L516.5,300.5 L516.5,156.5 z" fill-opacity="0" stroke="#000000" stroke-width="1"/>
    </g>
    <g>
      <path d="M12.5,300.5 L96.5,300.5 L96.5,444.5 L12.5,444.5 L12.5,300.5 z" fill="#FFFFFF"/>
      <path d="M12.5,300.5 L96.5,300.5 L96.5,444.5 L12.5,444.5 L12.5,300.5 z" fill-opacity="0" stroke="#000000" stroke-width="1"/>
    </g>
    <g>
      <path d="M96.5,300.5 L180.5,300.5 L180.5,444.5 L96.5,444.5 L96.5,300.5 z" fill="#FFFFFF"/>
      <path d="M96.5,300.5 L180.5,300.5 L180.5,444.5 L96.5,444.5 L96.5,300.5 z" fill-opacity="0" stroke="#000000" stroke-width="1"/>
    </g>
    <g>
      <path d="M180.5,300.5 L264.5,300.5 L264.5,444.5 L180.5,444.5 L180.5,300.5 z" fill="#FFFFFF"/>
      <path d="M180.5,300.5 L264.5,300.5 L264.5,444.5 L180.5,444.5 L180.5,300.5 z" fill-opacity="0" stroke="#000000" stroke-width="1"/>
    </g>
    <g>
      <path d="M264.5,300.5 L348.5,300.5 L348.5,444.5 L264.5,444.5 L264.5,300.5 z" fill="#FFFFFF"/>
      <path d="M264.5,300.5 L348.5,300.5 L348.5,444.5 L264.5,444.5 L264.5,300.5 z" fill-opacity="0" stroke="#000000" stroke-width="1"/>
    </g>
    <g>
      <path d="M348.5,300.5 L432.5,300.5 L432.5,444.5 L348.5,444.5 L348.5,300.5 z" fill="#FFFFFF"/>
      <path d="M348.5,300.5 L432.5,300.5 L432.5,444.5 L348.5,444.5 L348.5,300.5 z" fill-opacity="0" stroke="#000000" stroke-width="1"/>
    </g>
    <g>
      <path d="M432.5,300.5 L516.5,300.5 L516.5,444.5 L432.5,444.5 L432.5,300.5 z" fill="#FFFFFF"/>
      <path d="M432.5,300.5 L516.5,300.5 L516.5,444.5 L432.5,444.5 L432.5,300.5 z" fill-opacity="0" stroke="#000000" stroke-width="1"/>
    </g>
    <g>
      <path d="M516.5,300.5 L600.5,300.5 L600.5,444.5 L516.5,444.5 L516.5,300.5 z" fill="#FFFFFF"/>
      <path d="M516.5,300.5 L600.5,300.5 L600.5,444.5 L516.5,444.5 L516.5,300.5 z" fill-opacity="0" stroke="#000000" stroke-width="1"/>
    </g>
    <g>
      <path d="M12.5,444.5 L96.5,444.5 L96.5,588.5 L12.5,588.5 L12.5,444.5 z" fill="#FFFFFF"/>
      <path d="M12.5,444.5 L96.5,444.5 L96.5,588.5 L12.5,588.5 L12.5,444.5 z" fill-opacity="0" stroke="#000000" stroke-width="1"/>
    </g>
    <g>
      <path d="M96.5,444.5 L180.5,444.5 L180.5,588.5 L96.5,588.5 L96.5,444.5 z" fill="#FFFFFF"/>
      <path d="M96.5,444.5 L180.5,444.5 L180.5,588.5 L96.5,588.5 L96.5,444.5 z" fill-opacity="0" stroke="#000000" stroke-width="1"/>
    </g>
    <g>
      <path d="M180.5,444.5 L264.5,444.5 L264.5,588.5 L180.5,588.5 L180.5,444.5 z" fill="#FFFFFF"/>
      <path d="M180.5,444.5 L264.5,444.5 L264.5,588.5 L180.5,588.5 L180.5,444.5 z" fill-opacity="0" stroke="#000000" stroke-width="1"/>
    </g>
    <g>
      <path d="M264.5,444.5 L348.5,444.5 L348.5,588.5 L264.5,588.5 L264.5,444.5 z" fill="#FFFFFF"/>
      <path d="M264.5,444.5 L348.5,444.5 L348.5,588.5 L264.5,588.5 L264.5,444.5 z" fill-opacity="0" stroke="#000000" stroke-width="1"/>
    </g>
    <g>
      <path d="M348.5,444.5 L432.5,444.5 L432.5,588.5 L348.5,588.5 L348.5,444.5 z" fill="#FFFFFF"/>
      <path d="M348.5,444.5 L432.5,444.5 L432.5,588.5 L348.5,588.5 L348.5,444.5 z" fill-opacity="0" stroke="#000000" stroke-width="1"/>
    </g>
    <g>
      <path d="M432.5,444.5 L516.5,444.5 L516.5,588.5 L432.5,588.5 L432.5,444.5 z" fill="#FFFFFF"/>
      <path d="M432.5,444.5 L516.5,444.5 L516.5,588.5 L432.5,588.5 L432.5,444.5 z" fill-opacity="0" stroke="#000000" stroke-width="1"/>
    </g>
    <g>
      <path d="M516.5,444.5 L600.5,444.5 L600.5,588.5 L516.5,588.5 L516.5,444.5 z" fill="#FFFFFF"/>
      <path d="M516.5,444.5 L600.5,444.5 L600.5,588.5 L516.5,588.5 L516.5,444.5 z" fill-opacity="0" stroke="#000000" stroke-width="1"/>
    </g>
    <g>
      <path d="M12.5,588.5 L96.5,588.5 L96.5,732.5 L12.5,732.5 L12.5,588.5 z" fill="#FFFFFF"/>
      <path d="M12.5,588.5 L96.5,588.5 L96.5,732.5 L12.5,732.5 L12.5,588.5 z" fill-opacity="0" stroke="#000000" stroke-width="1"/>
    </g>
    <g>
      <path d="M96.5,588.5 L180.5,588.5 L180.5,732.5 L96.5,732.5 L96.5,588.5 z" fill="#FFFFFF"/>
      <path d="M96.5,588.5 L180.5,588.5 L180.5,732.5 L96.5,732.5 L96.5,588.5 z" fill-opacity="0" stroke="#000000" stroke-width="1"/>
    </g>
    <g>
      <path d="M180.5,588.5 L264.5,588.5 L264.5,732.5 L180.5,732.5 L180.5,588.5 z" fill="#FFFFFF"/>
      <path d="M180.5,588.5 L264.5,588.5 L264.5,732.5 L180.5,732.5 L180.5,588.5 z" fill-opacity="0" stroke="#000000" stroke-width="1"/>
    </g>
    <g>
      <path d="M264.5,588.5 L348.5,588.5 L348.5,732.5 L264.5,732.5 L264.5,588.5 z" fill="#FFFFFF"/>
      <path d="M264.5,588.5 L348.5,588.5 L348.5,732.5 L264.5,732.5 L264.5,588.5 z" fill-opacity="0" stroke="#000000" stroke-width="1"/>
    </g>
    <g>
      <path d="M348.5,588.5 L432.5,588.5 L432.5,732.5 L348.5,732.5 L348.5,588.5 z" fill="#FFFFFF"/>
      <path d="M348.5,588.5 L432.5,588.5 L432.5,732.5 L348.5,732.5 L348.5,588.5 z" fill-opacity="0" stroke="#000000" stroke-width="1"/>
    </g>
    <g>
      <path d="M432.5,588.5 L516.5,588.5 L516.5,732.5 L432.5,732.5 L432.5,588.5 z" fill="#FFFFFF"/>
      <path d="M432.5,588.5 L516.5,588.5 L516.5,732.5 L432.5,732.5 L432.5,588.5 z" fill-opacity="0" stroke="#000000" stroke-width="1"/>
    </g>
    <g>
      <path d="M516.5,588.5 L600.5,588.5 L600.5,732.5 L516.5,732.5 L516.5,588.5 z" fill="#FFFFFF"/>
      <path d="M516.5,588.5 L600.5,588.5 L600.5,732.5 L516.5,732.5 L516.5,588.5 z" fill-opacity="0" stroke="#000000" stroke-width="1"/>
    </g>
    <g>
      <path d="M12.5,732.5 L96.5,732.5 L96.5,876.5 L12.5,876.5 L12.5,732.5 z" fill="#FFFFFF"/>
      <path d="M12.5,732.5 L96.5,732.5 L96.5,876.5 L12.5,876.5 L12.5,732.5 z" fill-opacity="0" stroke="#000000" stroke-width="1"/>
    </g>
    <g>
      <path d="M96.5,732.5 L180.5,732.5 L180.5,876.5 L96.5,876.5 L96.5,732.5 z" fill="#FFFFFF"/>
      <path d="M96.5,732.5 L180.5,732.5 L180.5,876.5 L96.5,876.5 L96.5,732.5 z" fill-opacity="0" stroke="#000000" stroke-width="1"/>
    </g>
    <g>
      <path d="M180.5,732.5 L264.5,732.5 L264.5,876.5 L180.5,876.5 L180.5,732.5 z" fill="#FFFFFF"/>
      <path d="M180.5,732.5 L264.5,732.5 L264.5,876.5 L180.5,876.5 L180.5,732.5 z" fill-opacity="0" stroke="#000000" stroke-width="1"/>
    </g>
    <g>
      <path d="M264.5,732.5 L348.5,732.5 L348.5,876.5 L264.5,876.5 L264.5,732.5 z" fill="#FFFFFF"/>
      <path d="M264.5,732.5 L348.5,732.5 L348.5,876.5 L264.5,876.5 L264.5,732.5 z" fill-opacity="0" stroke="#000000" stroke-width="1"/>
    </g>
    <g>
      <path d="M348.5,732.5 L432.5,732.5 L432.5,876.5 L348.5,876.5 L348.5,732.5 z" fill="#FFFFFF"/>
      <path d="M348.5,732.5 L432.5,732.5 L432.5,876.5 L348.5,876.5 L348.5,732.5 z" fill-opacity="0" stroke="#000000" stroke-width="1"/>
    </g>
    <g>
      <path d="M432.5,732.5 L516.5,732.5 L516.5,876.5 L432.5,876.5 L432.5,732.5 z" fill="#FFFFFF"/>
      <path d="M432.5,732.5 L516.5,732.5 L516.5,876.5 L432.5,876.5 L432.5,732.5 z" fill-opacity="0" stroke="#000000" stroke-width="1"/>
    </g>
    <g>
      <path d="M516.5,732.5 L600.5,732.5 L600.5,876.5 L516.5,876.5 L516.5,732.5 z" fill="#FFFFFF"/>
      <path d="M516.5,732.5 L600.5,732.5 L600.5,876.5 L516.5,876.5 L516.5,732.5 z" fill-opacity="0" stroke="#000000" stroke-width="1"/>
    </g>
    <g>
      <path d="M12.5,876.5 L96.5,876.5 L96.5,1020.5 L12.5,1020.5 L12.5,876.5 z" fill="#FFFFFF"/>
      <path d="M12.5,876.5 L96.5,876.5 L96.5,1020.5 L12.5,1020.5 L12.5,876.5 z" fill-opacity="0" stroke="#000000" stroke-width="1"/>
    </g>
    <g>
      <path d="M96.5,876.5 L180.5,876.5 L180.5,1020.5 L96.5,1020.5 L96.5,876.5 z" fill="#FFFFFF"/>
      <path d="M96.5,876.5 L180.5,876.5 L180.5,1020.5 L96.5,1020.5 L96.5,876.5 z" fill-opacity="0" stroke="#000000" stroke-width="1"/>
    </g>
    <g>
      <path d="M180.5,876.5 L264.5,876.5 L264.5,1020.5 L180.5,1020.5 L180.5,876.5 z" fill="#FFFFFF"/>
      <path d="M180.5,876.5 L264.5,876.5 L264.5,1020.5 L180.5,1020.5 L180.5,876.5 z" fill-opacity="0" stroke="#000000" stroke-width="1"/>
    </g>
    <g>
      <path d="M264.5,876.5 L348.5,876.5 L348.5,1020.5 L264.5,1020.5 L264.5,876.5 z" fill="#FFFFFF"/>
      <path d="M264.5,876.5 L348.5,876.5 L348.5,1020.5 L264.5,1020.5 L264.5,876.5 z" fill-opacity="0" stroke="#000000" stroke-width="1"/>
    </g>
    <g>
      <path d="M348.5,876.5 L432.5,876.5 L432.5,1020.5 L348.5,1020.5 L348.5,876.5 z" fill="#FFFFFF"/>
      <path d="M348.5,876.5 L432.5,876.5 L432.5,1020.5 L348.5,1020.5 L348.5,876.5 z" fill-opacity="0" stroke="#000000" stroke-width="1"/>
    </g>
    <g>
      <path d="M516.5,876.5 L600.5,876.5 L600.5,1020.5 L516.5,1020.5 L516.5,876.5 z" fill="#FFFFFF"/>
      <path d="M516.5,876.5 L600.5,876.5 L600.5,1020.5 L516.5,1020.5 L516.5,876.5 z" fill-opacity="0" stroke="#000000" stroke-width="1"/>
    </g>
    <g>
      <path d="M432.5,876.5 L516.5,876.5 L516.5,1020.5 L432.5,1020.5 L432.5,876.5 z" fill="#FFFFFF"/>
      <path d="M432.5,876.5 L516.5,876.5 L516.5,1020.5 L432.5,1020.5 L432.5,876.5 z" fill-opacity="0" stroke="#000000" stroke-width="1"/>
    </g>
  </g>
  <g id="Patička">
    <text transform="matrix(1, 0, 0, 1, 120, 1038)">
      <tspan x="-108" y="-6" font-family="Helvetica" font-size="12" fill="#000000">Jednotlivé znaky jsou licencovány pod</tspan>
      <tspan x="-108" y="9" font-family="Helvetica" font-size="12" fill="#000000">Public domain via Wikimedia Commons</tspan>
    </text>
    <text transform="matrix(1, 0, 0, 1, 486, 1035.5)">
      <tspan x="-114" y="-3.5" font-family="Helvetica" font-size="12" fill="#000000">http://cs.wikipedia.org/wiki/Braillovo_písmo</tspan>
    </text>
    <text transform="matrix(1, 0, 0, 1, 540, 1035.5)">
      <tspan x="-52.717" y="11.5" font-family="Helvetica" font-size="12" fill="#000000">Sestavil Pavel Dostál</tspan>
    </text>
  </g>
  <g id="Braill">
    <g id="A">
      <path d="M43.565,33.412 C43.565,38.61 39.185,42.824 33.783,42.824 C28.38,42.824 24,38.61 24,33.412 C24,28.214 28.38,24 33.783,24 C39.185,24 43.565,28.214 43.565,33.412 z" fill="#000000"/>
      <path d="M84.5,33.912 C84.5,39.11 80.12,43.324 74.717,43.324 C69.315,43.324 64.935,39.11 64.935,33.912 C64.935,28.714 69.315,24.5 74.717,24.5 C80.12,24.5 84.5,28.714 84.5,33.912 z" fill-opacity="0" stroke="#000000" stroke-width="1"/>
      <path d="M44.065,72.814 C44.065,78.012 39.685,82.225 34.283,82.225 C28.88,82.225 24.5,78.012 24.5,72.814 C24.5,67.616 28.88,63.402 34.283,63.402 C39.685,63.402 44.065,67.616 44.065,72.814 z" fill-opacity="0" stroke="#000000" stroke-width="1"/>
      <path d="M84.5,72.814 C84.5,78.012 80.12,82.225 74.717,82.225 C69.315,82.225 64.935,78.012 64.935,72.814 C64.935,67.616 69.315,63.402 74.717,63.402 C80.12,63.402 84.5,67.616 84.5,72.814 z" fill-opacity="0" stroke="#000000" stroke-width="1"/>
      <path d="M44.065,111.088 C44.065,116.286 39.685,120.5 34.283,120.5 C28.88,120.5 24.5,116.286 24.5,111.088 C24.5,105.89 28.88,101.676 34.283,101.676 C39.685,101.676 44.065,105.89 44.065,111.088 z" fill-opacity="0" stroke="#000000" stroke-width="1"/>
      <path d="M84.5,111.088 C84.5,116.286 80.12,120.5 74.717,120.5 C69.315,120.5 64.935,116.286 64.935,111.088 C64.935,105.89 69.315,101.676 74.717,101.676 C80.12,101.676 84.5,105.89 84.5,111.088 z" fill-opacity="0" stroke="#000000" stroke-width="1"/>
    </g>
    <g id="Á">
      <g>
        <path d="M128.065,72.814 C128.065,78.012 123.685,82.225 118.283,82.225 C112.88,82.225 108.5,78.012 108.5,72.814 C108.5,67.616 112.88,63.402 118.283,63.402 C123.685,63.402 128.065,67.616 128.065,72.814 z" fill-opacity="0" stroke="#000000" stroke-width="1"/>
        <path d="M168.5,72.814 C168.5,78.012 164.12,82.225 158.717,82.225 C153.315,82.225 148.935,78.012 148.935,72.814 C148.935,67.616 153.315,63.402 158.717,63.402 C164.12,63.402 168.5,67.616 168.5,72.814 z" fill-opacity="0" stroke="#000000" stroke-width="1"/>
        <path d="M168.5,33.912 C168.5,39.11 164.12,43.324 158.717,43.324 C153.315,43.324 148.935,39.11 148.935,33.912 C148.935,28.714 153.315,24.5 158.717,24.5 C164.12,24.5 168.5,28.714 168.5,33.912 z" fill-opacity="0" stroke="#000000" stroke-width="1"/>
        <path d="M128.065,111.088 C128.065,116.286 123.685,120.5 118.283,120.5 C112.88,120.5 108.5,116.286 108.5,111.088 C108.5,105.89 112.88,101.676 118.283,101.676 C123.685,101.676 128.065,105.89 128.065,111.088 z" fill-opacity="0" stroke="#000000" stroke-width="1"/>
      </g>
      <path d="M127.565,33.412 C127.565,38.61 123.185,42.824 117.783,42.824 C112.38,42.824 108,38.61 108,33.412 C108,28.214 112.38,24 117.783,24 C123.185,24 127.565,28.214 127.565,33.412 z" fill="#000000"/>
      <path d="M168,110.588 C168,115.786 163.62,120 158.217,120 C152.815,120 148.435,115.786 148.435,110.588 C148.435,105.39 152.815,101.176 158.217,101.176 C163.62,101.176 168,105.39 168,110.588 z" fill="#000000"/>
    </g>
    <g id="B">
      <path d="M211.565,33.412 C211.565,38.61 207.185,42.824 201.783,42.824 C196.38,42.824 192,38.61 192,33.412 C192,28.214 196.38,24 201.783,24 C207.185,24 211.565,28.214 211.565,33.412 z" fill="#000000"/>
      <path d="M252.5,33.912 C252.5,39.11 248.12,43.324 242.717,43.324 C237.315,43.324 232.935,39.11 232.935,33.912 C232.935,28.714 237.315,24.5 242.717,24.5 C248.12,24.5 252.5,28.714 252.5,33.912 z" fill-opacity="0" stroke="#000000" stroke-width="1"/>
      <path d="M211.565,72.314 C211.565,77.512 207.185,81.725 201.783,81.725 C196.38,81.725 192,77.512 192,72.314 C192,67.116 196.38,62.902 201.783,62.902 C207.185,62.902 211.565,67.116 211.565,72.314 z" fill="#000000"/>
      <path d="M252.5,72.814 C252.5,78.012 248.12,82.225 242.717,82.225 C237.315,82.225 232.935,78.012 232.935,72.814 C232.935,67.616 237.315,63.402 242.717,63.402 C248.12,63.402 252.5,67.616 252.5,72.814 z" fill-opacity="0" stroke="#000000" stroke-width="1"/>
      <path d="M212.065,111.088 C212.065,116.286 207.685,120.5 202.283,120.5 C196.88,120.5 192.5,116.286 192.5,111.088 C192.5,105.89 196.88,101.676 202.283,101.676 C207.685,101.676 212.065,105.89 212.065,111.088 z" fill-opacity="0" stroke="#000000" stroke-width="1"/>
      <path d="M252.5,111.088 C252.5,116.286 248.12,120.5 242.717,120.5 C237.315,120.5 232.935,116.286 232.935,111.088 C232.935,105.89 237.315,101.676 242.717,101.676 C248.12,101.676 252.5,105.89 252.5,111.088 z" fill-opacity="0" stroke="#000000" stroke-width="1"/>
    </g>
    <g id="C">
      <path d="M295.565,33.412 C295.565,38.61 291.185,42.824 285.783,42.824 C280.38,42.824 276,38.61 276,33.412 C276,28.214 280.38,24 285.783,24 C291.185,24 295.565,28.214 295.565,33.412 z" fill="#000000"/>
      <path d="M336,33.412 C336,38.61 331.62,42.824 326.217,42.824 C320.815,42.824 316.435,38.61 316.435,33.412 C316.435,28.214 320.815,24 326.217,24 C331.62,24 336,28.214 336,33.412 z" fill="#000000"/>
      <path d="M296.065,72.814 C296.065,78.012 291.685,82.225 286.283,82.225 C280.88,82.225 276.5,78.012 276.5,72.814 C276.5,67.616 280.88,63.402 286.283,63.402 C291.685,63.402 296.065,67.616 296.065,72.814 z" fill-opacity="0" stroke="#000000" stroke-width="1"/>
      <path d="M336.5,72.814 C336.5,78.012 332.12,82.225 326.717,82.225 C321.315,82.225 316.935,78.012 316.935,72.814 C316.935,67.616 321.315,63.402 326.717,63.402 C332.12,63.402 336.5,67.616 336.5,72.814 z" fill-opacity="0" stroke="#000000" stroke-width="1"/>
      <path d="M296.065,111.088 C296.065,116.286 291.685,120.5 286.283,120.5 C280.88,120.5 276.5,116.286 276.5,111.088 C276.5,105.89 280.88,101.676 286.283,101.676 C291.685,101.676 296.065,105.89 296.065,111.088 z" fill-opacity="0" stroke="#000000" stroke-width="1"/>
      <path d="M336.5,111.088 C336.5,116.286 332.12,120.5 326.717,120.5 C321.315,120.5 316.935,116.286 316.935,111.088 C316.935,105.89 321.315,101.676 326.717,101.676 C332.12,101.676 336.5,105.89 336.5,111.088 z" fill-opacity="0" stroke="#000000" stroke-width="1"/>
    </g>
    <g id="Č">
      <path d="M379.565,33.412 C379.565,38.61 375.185,42.824 369.783,42.824 C364.38,42.824 360,38.61 360,33.412 C360,28.214 364.38,24 369.783,24 C375.185,24 379.565,28.214 379.565,33.412 z" fill="#000000"/>
      <path d="M420,33.412 C420,38.61 415.62,42.824 410.217,42.824 C404.815,42.824 400.435,38.61 400.435,33.412 C400.435,28.214 404.815,24 410.217,24 C415.62,24 420,28.214 420,33.412 z" fill="#000000"/>
      <path d="M380.065,72.814 C380.065,78.012 375.685,82.225 370.283,82.225 C364.88,82.225 360.5,78.012 360.5,72.814 C360.5,67.616 364.88,63.402 370.283,63.402 C375.685,63.402 380.065,67.616 380.065,72.814 z" fill-opacity="0" stroke="#000000" stroke-width="1"/>
      <path d="M420.5,72.814 C420.5,78.012 416.12,82.225 410.717,82.225 C405.315,82.225 400.935,78.012 400.935,72.814 C400.935,67.616 405.315,63.402 410.717,63.402 C416.12,63.402 420.5,67.616 420.5,72.814 z" fill-opacity="0" stroke="#000000" stroke-width="1"/>
      <path d="M380.065,111.088 C380.065,116.286 375.685,120.5 370.283,120.5 C364.88,120.5 360.5,116.286 360.5,111.088 C360.5,105.89 364.88,101.676 370.283,101.676 C375.685,101.676 380.065,105.89 380.065,111.088 z" fill-opacity="0" stroke="#000000" stroke-width="1"/>
      <path d="M420,110.588 C420,115.786 415.62,120 410.217,120 C404.815,120 400.435,115.786 400.435,110.588 C400.435,105.39 404.815,101.176 410.217,101.176 C415.62,101.176 420,105.39 420,110.588 z" fill="#000000"/>
    </g>
    <g id="D">
      <path d="M463.565,33.412 C463.565,38.61 459.185,42.824 453.783,42.824 C448.38,42.824 444,38.61 444,33.412 C444,28.214 448.38,24 453.783,24 C459.185,24 463.565,28.214 463.565,33.412 z" fill="#000000"/>
      <path d="M504,33.412 C504,38.61 499.62,42.824 494.217,42.824 C488.815,42.824 484.435,38.61 484.435,33.412 C484.435,28.214 488.815,24 494.217,24 C499.62,24 504,28.214 504,33.412 z" fill="#000000"/>
      <path d="M464.065,72.814 C464.065,78.012 459.685,82.225 454.283,82.225 C448.88,82.225 444.5,78.012 444.5,72.814 C444.5,67.616 448.88,63.402 454.283,63.402 C459.685,63.402 464.065,67.616 464.065,72.814 z" fill-opacity="0" stroke="#000000" stroke-width="1"/>
      <path d="M504,72.314 C504,77.512 499.62,81.725 494.217,81.725 C488.815,81.725 484.435,77.512 484.435,72.314 C484.435,67.116 488.815,62.902 494.217,62.902 C499.62,62.902 504,67.116 504,72.314 z" fill="#000000"/>
      <path d="M464.065,111.088 C464.065,116.286 459.685,120.5 454.283,120.5 C448.88,120.5 444.5,116.286 444.5,111.088 C444.5,105.89 448.88,101.676 454.283,101.676 C459.685,101.676 464.065,105.89 464.065,111.088 z" fill-opacity="0" stroke="#000000" stroke-width="1"/>
      <path d="M504.5,111.088 C504.5,116.286 500.12,120.5 494.717,120.5 C489.315,120.5 484.935,116.286 484.935,111.088 C484.935,105.89 489.315,101.676 494.717,101.676 C500.12,101.676 504.5,105.89 504.5,111.088 z" fill-opacity="0" stroke="#000000" stroke-width="1"/>
    </g>
    <g id="Ď">
      <path d="M547.565,33.412 C547.565,38.61 543.185,42.824 537.783,42.824 C532.38,42.824 528,38.61 528,33.412 C528,28.214 532.38,24 537.783,24 C543.185,24 547.565,28.214 547.565,33.412 z" fill="#000000"/>
      <path d="M588,33.412 C588,38.61 583.62,42.824 578.217,42.824 C572.815,42.824 568.435,38.61 568.435,33.412 C568.435,28.214 572.815,24 578.217,24 C583.62,24 588,28.214 588,33.412 z" fill="#000000"/>
      <path d="M548.065,72.814 C548.065,78.012 543.685,82.225 538.283,82.225 C532.88,82.225 528.5,78.012 528.5,72.814 C528.5,67.616 532.88,63.402 538.283,63.402 C543.685,63.402 548.065,67.616 548.065,72.814 z" fill-opacity="0" stroke="#000000" stroke-width="1"/>
      <path d="M588,72.314 C588,77.512 583.62,81.725 578.217,81.725 C572.815,81.725 568.435,77.512 568.435,72.314 C568.435,67.116 572.815,62.902 578.217,62.902 C583.62,62.902 588,67.116 588,72.314 z" fill="#000000"/>
      <path d="M548.065,111.088 C548.065,116.286 543.685,120.5 538.283,120.5 C532.88,120.5 528.5,116.286 528.5,111.088 C528.5,105.89 532.88,101.676 538.283,101.676 C543.685,101.676 548.065,105.89 548.065,111.088 z" fill-opacity="0" stroke="#000000" stroke-width="1"/>
      <path d="M588,110.588 C588,115.786 583.62,120 578.217,120 C572.815,120 568.435,115.786 568.435,110.588 C568.435,105.39 572.815,101.176 578.217,101.176 C583.62,101.176 588,105.39 588,110.588 z" fill="#000000"/>
    </g>
    <g id="E">
      <path d="M43.565,177.412 C43.565,182.61 39.185,186.824 33.783,186.824 C28.38,186.824 24,182.61 24,177.412 C24,172.214 28.38,168 33.783,168 C39.185,168 43.565,172.214 43.565,177.412 z" fill="#000000"/>
      <path d="M84.5,177.912 C84.5,183.11 80.12,187.324 74.717,187.324 C69.315,187.324 64.935,183.11 64.935,177.912 C64.935,172.714 69.315,168.5 74.717,168.5 C80.12,168.5 84.5,172.714 84.5,177.912 z" fill-opacity="0" stroke="#000000" stroke-width="1"/>
      <path d="M44.065,216.814 C44.065,222.012 39.685,226.225 34.283,226.225 C28.88,226.225 24.5,222.012 24.5,216.814 C24.5,211.616 28.88,207.402 34.283,207.402 C39.685,207.402 44.065,211.616 44.065,216.814 z" fill-opacity="0" stroke="#000000" stroke-width="1"/>
      <path d="M84,216.314 C84,221.512 79.62,225.725 74.217,225.725 C68.815,225.725 64.435,221.512 64.435,216.314 C64.435,211.116 68.815,206.902 74.217,206.902 C79.62,206.902 84,211.116 84,216.314 z" fill="#000000"/>
      <path d="M44.065,255.088 C44.065,260.286 39.685,264.5 34.283,264.5 C28.88,264.5 24.5,260.286 24.5,255.088 C24.5,249.89 28.88,245.676 34.283,245.676 C39.685,245.676 44.065,249.89 44.065,255.088 z" fill-opacity="0" stroke="#000000" stroke-width="1"/>
      <path d="M84.5,255.088 C84.5,260.286 80.12,264.5 74.717,264.5 C69.315,264.5 64.935,260.286 64.935,255.088 C64.935,249.89 69.315,245.676 74.717,245.676 C80.12,245.676 84.5,249.89 84.5,255.088 z" fill-opacity="0" stroke="#000000" stroke-width="1"/>
    </g>
    <g id="É">
      <path d="M128.065,177.912 C128.065,183.11 123.685,187.324 118.283,187.324 C112.88,187.324 108.5,183.11 108.5,177.912 C108.5,172.714 112.88,168.5 118.283,168.5 C123.685,168.5 128.065,172.714 128.065,177.912 z" fill-opacity="0" stroke="#000000" stroke-width="1"/>
      <path d="M168,177.412 C168,182.61 163.62,186.824 158.217,186.824 C152.815,186.824 148.435,182.61 148.435,177.412 C148.435,172.214 152.815,168 158.217,168 C163.62,168 168,172.214 168,177.412 z" fill="#000000"/>
      <path d="M128.065,216.814 C128.065,222.012 123.685,226.225 118.283,226.225 C112.88,226.225 108.5,222.012 108.5,216.814 C108.5,211.616 112.88,207.402 118.283,207.402 C123.685,207.402 128.065,211.616 128.065,216.814 z" fill-opacity="0" stroke="#000000" stroke-width="1"/>
      <path d="M168,216.314 C168,221.512 163.62,225.725 158.217,225.725 C152.815,225.725 148.435,221.512 148.435,216.314 C148.435,211.116 152.815,206.902 158.217,206.902 C163.62,206.902 168,211.116 168,216.314 z" fill="#000000"/>
      <path d="M127.565,254.588 C127.565,259.786 123.185,264 117.783,264 C112.38,264 108,259.786 108,254.588 C108,249.39 112.38,245.176 117.783,245.176 C123.185,245.176 127.565,249.39 127.565,254.588 z" fill="#000000"/>
      <path d="M168.5,255.088 C168.5,260.286 164.12,264.5 158.717,264.5 C153.315,264.5 148.935,260.286 148.935,255.088 C148.935,249.89 153.315,245.676 158.717,245.676 C164.12,245.676 168.5,249.89 168.5,255.088 z" fill-opacity="0" stroke="#000000" stroke-width="1"/>
    </g>
    <g id="Ě">
      <path d="M211.565,177.412 C211.565,182.61 207.185,186.824 201.783,186.824 C196.38,186.824 192,182.61 192,177.412 C192,172.214 196.38,168 201.783,168 C207.185,168 211.565,172.214 211.565,177.412 z" fill="#000000"/>
      <path d="M252.5,177.912 C252.5,183.11 248.12,187.324 242.717,187.324 C237.315,187.324 232.935,183.11 232.935,177.912 C232.935,172.714 237.315,168.5 242.717,168.5 C248.12,168.5 252.5,172.714 252.5,177.912 z" fill-opacity="0" stroke="#000000" stroke-width="1"/>
      <path d="M211.565,216.314 C211.565,221.512 207.185,225.725 201.783,225.725 C196.38,225.725 192,221.512 192,216.314 C192,211.116 196.38,206.902 201.783,206.902 C207.185,206.902 211.565,211.116 211.565,216.314 z" fill="#000000"/>
      <path d="M252.5,216.814 C252.5,222.012 248.12,226.225 242.717,226.225 C237.315,226.225 232.935,222.012 232.935,216.814 C232.935,211.616 237.315,207.402 242.717,207.402 C248.12,207.402 252.5,211.616 252.5,216.814 z" fill-opacity="0" stroke="#000000" stroke-width="1"/>
      <path d="M212.065,255.088 C212.065,260.286 207.685,264.5 202.283,264.5 C196.88,264.5 192.5,260.286 192.5,255.088 C192.5,249.89 196.88,245.676 202.283,245.676 C207.685,245.676 212.065,249.89 212.065,255.088 z" fill-opacity="0" stroke="#000000" stroke-width="1"/>
      <path d="M252,254.588 C252,259.786 247.62,264 242.217,264 C236.815,264 232.435,259.786 232.435,254.588 C232.435,249.39 236.815,245.176 242.217,245.176 C247.62,245.176 252,249.39 252,254.588 z" fill="#000000"/>
    </g>
    <g id="G">
      <path d="M379.565,177.412 C379.565,182.61 375.185,186.824 369.783,186.824 C364.38,186.824 360,182.61 360,177.412 C360,172.214 364.38,168 369.783,168 C375.185,168 379.565,172.214 379.565,177.412 z" fill="#000000"/>
      <path d="M420,177.412 C420,182.61 415.62,186.824 410.217,186.824 C404.815,186.824 400.435,182.61 400.435,177.412 C400.435,172.214 404.815,168 410.217,168 C415.62,168 420,172.214 420,177.412 z" fill="#000000"/>
      <path d="M379.565,216.314 C379.565,221.512 375.185,225.725 369.783,225.725 C364.38,225.725 360,221.512 360,216.314 C360,211.116 364.38,206.902 369.783,206.902 C375.185,206.902 379.565,211.116 379.565,216.314 z" fill="#000000"/>
      <path d="M420,216.314 C420,221.512 415.62,225.725 410.217,225.725 C404.815,225.725 400.435,221.512 400.435,216.314 C400.435,211.116 404.815,206.902 410.217,206.902 C415.62,206.902 420,211.116 420,216.314 z" fill="#000000"/>
      <path d="M380.065,255.088 C380.065,260.286 375.685,264.5 370.283,264.5 C364.88,264.5 360.5,260.286 360.5,255.088 C360.5,249.89 364.88,245.676 370.283,245.676 C375.685,245.676 380.065,249.89 380.065,255.088 z" fill-opacity="0" stroke="#000000" stroke-width="1"/>
      <path d="M420.5,255.088 C420.5,260.286 416.12,264.5 410.717,264.5 C405.315,264.5 400.935,260.286 400.935,255.088 C400.935,249.89 405.315,245.676 410.717,245.676 C416.12,245.676 420.5,249.89 420.5,255.088 z" fill-opacity="0" stroke="#000000" stroke-width="1"/>
    </g>
    <g id="H">
      <path d="M463.565,177.412 C463.565,182.61 459.185,186.824 453.783,186.824 C448.38,186.824 444,182.61 444,177.412 C444,172.214 448.38,168 453.783,168 C459.185,168 463.565,172.214 463.565,177.412 z" fill="#000000"/>
      <path d="M504.5,177.912 C504.5,183.11 500.12,187.324 494.717,187.324 C489.315,187.324 484.935,183.11 484.935,177.912 C484.935,172.714 489.315,168.5 494.717,168.5 C500.12,168.5 504.5,172.714 504.5,177.912 z" fill-opacity="0" stroke="#000000" stroke-width="1"/>
      <path d="M463.565,216.314 C463.565,221.512 459.185,225.725 453.783,225.725 C448.38,225.725 444,221.512 444,216.314 C444,211.116 448.38,206.902 453.783,206.902 C459.185,206.902 463.565,211.116 463.565,216.314 z" fill="#000000"/>
      <path d="M504,216.314 C504,221.512 499.62,225.725 494.217,225.725 C488.815,225.725 484.435,221.512 484.435,216.314 C484.435,211.116 488.815,206.902 494.217,206.902 C499.62,206.902 504,211.116 504,216.314 z" fill="#000000"/>
      <path d="M464.065,255.088 C464.065,260.286 459.685,264.5 454.283,264.5 C448.88,264.5 444.5,260.286 444.5,255.088 C444.5,249.89 448.88,245.676 454.283,245.676 C459.685,245.676 464.065,249.89 464.065,255.088 z" fill-opacity="0" stroke="#000000" stroke-width="1"/>
      <path d="M504.5,255.088 C504.5,260.286 500.12,264.5 494.717,264.5 C489.315,264.5 484.935,260.286 484.935,255.088 C484.935,249.89 489.315,245.676 494.717,245.676 C500.12,245.676 504.5,249.89 504.5,255.088 z" fill-opacity="0" stroke="#000000" stroke-width="1"/>
    </g>
    <g id="I">
      <path d="M548.065,177.912 C548.065,183.11 543.685,187.324 538.283,187.324 C532.88,187.324 528.5,183.11 528.5,177.912 C528.5,172.714 532.88,168.5 538.283,168.5 C543.685,168.5 548.065,172.714 548.065,177.912 z" fill-opacity="0" stroke="#000000" stroke-width="1"/>
      <path d="M588,177.412 C588,182.61 583.62,186.824 578.217,186.824 C572.815,186.824 568.435,182.61 568.435,177.412 C568.435,172.214 572.815,168 578.217,168 C583.62,168 588,172.214 588,177.412 z" fill="#000000"/>
      <path d="M547.565,216.314 C547.565,221.512 543.185,225.725 537.783,225.725 C532.38,225.725 528,221.512 528,216.314 C528,211.116 532.38,206.902 537.783,206.902 C543.185,206.902 547.565,211.116 547.565,216.314 z" fill="#000000"/>
      <path d="M588.5,216.814 C588.5,222.012 584.12,226.225 578.717,226.225 C573.315,226.225 568.935,222.012 568.935,216.814 C568.935,211.616 573.315,207.402 578.717,207.402 C584.12,207.402 588.5,211.616 588.5,216.814 z" fill-opacity="0" stroke="#000000" stroke-width="1"/>
      <path d="M548.065,255.088 C548.065,260.286 543.685,264.5 538.283,264.5 C532.88,264.5 528.5,260.286 528.5,255.088 C528.5,249.89 532.88,245.676 538.283,245.676 C543.685,245.676 548.065,249.89 548.065,255.088 z" fill-opacity="0" stroke="#000000" stroke-width="1"/>
      <path d="M588.5,255.088 C588.5,260.286 584.12,264.5 578.717,264.5 C573.315,264.5 568.935,260.286 568.935,255.088 C568.935,249.89 573.315,245.676 578.717,245.676 C584.12,245.676 588.5,249.89 588.5,255.088 z" fill-opacity="0" stroke="#000000" stroke-width="1"/>
    </g>
    <g id="Í">
      <g>
        <path d="M43.739,321.943 C43.739,326.984 39.505,331.07 34.283,331.07 C29.06,331.07 24.826,326.984 24.826,321.943 C24.826,316.901 29.06,312.815 34.283,312.815 C39.505,312.815 43.739,316.901 43.739,321.943 z" fill-opacity="0" stroke="#000000" stroke-width="1"/>
        <path d="M43.739,360.5 C43.739,365.541 39.505,369.628 34.283,369.628 C29.06,369.628 24.826,365.541 24.826,360.5 C24.826,355.459 29.06,351.372 34.283,351.372 C39.505,351.372 43.739,355.459 43.739,360.5 z" fill-opacity="0" stroke="#000000" stroke-width="1"/>
        <path d="M84.174,360.5 C84.174,365.541 79.94,369.628 74.717,369.628 C69.495,369.628 65.261,365.541 65.261,360.5 C65.261,355.459 69.495,351.372 74.717,351.372 C79.94,351.372 84.174,355.459 84.174,360.5 z" fill-opacity="0" stroke="#000000" stroke-width="1"/>
        <path d="M84.174,399.057 C84.174,404.099 79.94,408.185 74.717,408.185 C69.495,408.185 65.261,404.099 65.261,399.057 C65.261,394.016 69.495,389.93 74.717,389.93 C79.94,389.93 84.174,394.016 84.174,399.057 z" fill-opacity="0" stroke="#000000" stroke-width="1"/>
      </g>
      <path d="M43.565,398.557 C43.565,403.772 39.185,408 33.783,408 C28.38,408 24,403.772 24,398.557 C24,393.342 28.38,389.115 33.783,389.115 C39.185,389.115 43.565,393.342 43.565,398.557 z" fill="#000000"/>
      <path d="M84,321.443 C84,326.658 79.62,330.885 74.217,330.885 C68.815,330.885 64.435,326.658 64.435,321.443 C64.435,316.228 68.815,312 74.217,312 C79.62,312 84,316.228 84,321.443 z" fill="#000000"/>
    </g>
    <g id="J">
      <path d="M128.065,321.912 C128.065,327.11 123.685,331.324 118.283,331.324 C112.88,331.324 108.5,327.11 108.5,321.912 C108.5,316.714 112.88,312.5 118.283,312.5 C123.685,312.5 128.065,316.714 128.065,321.912 z" fill-opacity="0" stroke="#000000" stroke-width="1"/>
      <path d="M168,321.412 C168,326.61 163.62,330.824 158.217,330.824 C152.815,330.824 148.435,326.61 148.435,321.412 C148.435,316.214 152.815,312 158.217,312 C163.62,312 168,316.214 168,321.412 z" fill="#000000"/>
      <path d="M127.565,360.314 C127.565,365.512 123.185,369.725 117.783,369.725 C112.38,369.725 108,365.512 108,360.314 C108,355.116 112.38,350.902 117.783,350.902 C123.185,350.902 127.565,355.116 127.565,360.314 z" fill="#000000"/>
      <path d="M168,360.314 C168,365.512 163.62,369.725 158.217,369.725 C152.815,369.725 148.435,365.512 148.435,360.314 C148.435,355.116 152.815,350.902 158.217,350.902 C163.62,350.902 168,355.116 168,360.314 z" fill="#000000"/>
      <path d="M128.065,399.088 C128.065,404.286 123.685,408.5 118.283,408.5 C112.88,408.5 108.5,404.286 108.5,399.088 C108.5,393.89 112.88,389.676 118.283,389.676 C123.685,389.676 128.065,393.89 128.065,399.088 z" fill-opacity="0" stroke="#000000" stroke-width="1"/>
      <path d="M168.5,399.088 C168.5,404.286 164.12,408.5 158.717,408.5 C153.315,408.5 148.935,404.286 148.935,399.088 C148.935,393.89 153.315,389.676 158.717,389.676 C164.12,389.676 168.5,393.89 168.5,399.088 z" fill-opacity="0" stroke="#000000" stroke-width="1"/>
    </g>
    <g id="K">
      <path d="M211.565,321.412 C211.565,326.61 207.185,330.824 201.783,330.824 C196.38,330.824 192,326.61 192,321.412 C192,316.214 196.38,312 201.783,312 C207.185,312 211.565,316.214 211.565,321.412 z" fill="#000000"/>
      <path d="M252.5,321.912 C252.5,327.11 248.12,331.324 242.717,331.324 C237.315,331.324 232.935,327.11 232.935,321.912 C232.935,316.714 237.315,312.5 242.717,312.5 C248.12,312.5 252.5,316.714 252.5,321.912 z" fill-opacity="0" stroke="#000000" stroke-width="1"/>
      <path d="M212.065,360.814 C212.065,366.012 207.685,370.225 202.283,370.225 C196.88,370.225 192.5,366.012 192.5,360.814 C192.5,355.616 196.88,351.402 202.283,351.402 C207.685,351.402 212.065,355.616 212.065,360.814 z" fill-opacity="0" stroke="#000000" stroke-width="1"/>
      <path d="M252.5,360.814 C252.5,366.012 248.12,370.225 242.717,370.225 C237.315,370.225 232.935,366.012 232.935,360.814 C232.935,355.616 237.315,351.402 242.717,351.402 C248.12,351.402 252.5,355.616 252.5,360.814 z" fill-opacity="0" stroke="#000000" stroke-width="1"/>
      <path d="M211.565,398.588 C211.565,403.786 207.185,408 201.783,408 C196.38,408 192,403.786 192,398.588 C192,393.39 196.38,389.176 201.783,389.176 C207.185,389.176 211.565,393.39 211.565,398.588 z" fill="#000000"/>
      <path d="M252.5,399.088 C252.5,404.286 248.12,408.5 242.717,408.5 C237.315,408.5 232.935,404.286 232.935,399.088 C232.935,393.89 237.315,389.676 242.717,389.676 C248.12,389.676 252.5,393.89 252.5,399.088 z" fill-opacity="0" stroke="#000000" stroke-width="1"/>
    </g>
    <g id="L">
      <path d="M295.565,321.412 C295.565,326.61 291.185,330.824 285.783,330.824 C280.38,330.824 276,326.61 276,321.412 C276,316.214 280.38,312 285.783,312 C291.185,312 295.565,316.214 295.565,321.412 z" fill="#000000"/>
      <path d="M336.5,321.912 C336.5,327.11 332.12,331.324 326.717,331.324 C321.315,331.324 316.935,327.11 316.935,321.912 C316.935,316.714 321.315,312.5 326.717,312.5 C332.12,312.5 336.5,316.714 336.5,321.912 z" fill-opacity="0" stroke="#000000" stroke-width="1"/>
      <path d="M295.565,360.314 C295.565,365.512 291.185,369.725 285.783,369.725 C280.38,369.725 276,365.512 276,360.314 C276,355.116 280.38,350.902 285.783,350.902 C291.185,350.902 295.565,355.116 295.565,360.314 z" fill="#000000"/>
      <path d="M336.5,360.814 C336.5,366.012 332.12,370.225 326.717,370.225 C321.315,370.225 316.935,366.012 316.935,360.814 C316.935,355.616 321.315,351.402 326.717,351.402 C332.12,351.402 336.5,355.616 336.5,360.814 z" fill-opacity="0" stroke="#000000" stroke-width="1"/>
      <path d="M295.565,398.588 C295.565,403.786 291.185,408 285.783,408 C280.38,408 276,403.786 276,398.588 C276,393.39 280.38,389.176 285.783,389.176 C291.185,389.176 295.565,393.39 295.565,398.588 z" fill="#000000"/>
      <path d="M336.5,399.088 C336.5,404.286 332.12,408.5 326.717,408.5 C321.315,408.5 316.935,404.286 316.935,399.088 C316.935,393.89 321.315,389.676 326.717,389.676 C332.12,389.676 336.5,393.89 336.5,399.088 z" fill-opacity="0" stroke="#000000" stroke-width="1"/>
    </g>
    <g id="M">
      <path d="M379.565,321.412 C379.565,326.61 375.185,330.824 369.783,330.824 C364.38,330.824 360,326.61 360,321.412 C360,316.214 364.38,312 369.783,312 C375.185,312 379.565,316.214 379.565,321.412 z" fill="#000000"/>
      <path d="M420,321.412 C420,326.61 415.62,330.824 410.217,330.824 C404.815,330.824 400.435,326.61 400.435,321.412 C400.435,316.214 404.815,312 410.217,312 C415.62,312 420,316.214 420,321.412 z" fill="#000000"/>
      <path d="M380.065,360.814 C380.065,366.012 375.685,370.225 370.283,370.225 C364.88,370.225 360.5,366.012 360.5,360.814 C360.5,355.616 364.88,351.402 370.283,351.402 C375.685,351.402 380.065,355.616 380.065,360.814 z" fill-opacity="0" stroke="#000000" stroke-width="1"/>
      <path d="M420.5,360.814 C420.5,366.012 416.12,370.225 410.717,370.225 C405.315,370.225 400.935,366.012 400.935,360.814 C400.935,355.616 405.315,351.402 410.717,351.402 C416.12,351.402 420.5,355.616 420.5,360.814 z" fill-opacity="0" stroke="#000000" stroke-width="1"/>
      <path d="M379.565,398.588 C379.565,403.786 375.185,408 369.783,408 C364.38,408 360,403.786 360,398.588 C360,393.39 364.38,389.176 369.783,389.176 C375.185,389.176 379.565,393.39 379.565,398.588 z" fill="#000000"/>
      <path d="M420.5,399.088 C420.5,404.286 416.12,408.5 410.717,408.5 C405.315,408.5 400.935,404.286 400.935,399.088 C400.935,393.89 405.315,389.676 410.717,389.676 C416.12,389.676 420.5,393.89 420.5,399.088 z" fill-opacity="0" stroke="#000000" stroke-width="1"/>
    </g>
    <g id="N">
      <path d="M463.565,321.412 C463.565,326.61 459.185,330.824 453.783,330.824 C448.38,330.824 444,326.61 444,321.412 C444,316.214 448.38,312 453.783,312 C459.185,312 463.565,316.214 463.565,321.412 z" fill="#000000"/>
      <path d="M504,321.412 C504,326.61 499.62,330.824 494.217,330.824 C488.815,330.824 484.435,326.61 484.435,321.412 C484.435,316.214 488.815,312 494.217,312 C499.62,312 504,316.214 504,321.412 z" fill="#000000"/>
      <path d="M464.065,360.814 C464.065,366.012 459.685,370.225 454.283,370.225 C448.88,370.225 444.5,366.012 444.5,360.814 C444.5,355.616 448.88,351.402 454.283,351.402 C459.685,351.402 464.065,355.616 464.065,360.814 z" fill-opacity="0" stroke="#000000" stroke-width="1"/>
      <path d="M504,360.314 C504,365.512 499.62,369.725 494.217,369.725 C488.815,369.725 484.435,365.512 484.435,360.314 C484.435,355.116 488.815,350.902 494.217,350.902 C499.62,350.902 504,355.116 504,360.314 z" fill="#000000"/>
      <path d="M463.565,398.588 C463.565,403.786 459.185,408 453.783,408 C448.38,408 444,403.786 444,398.588 C444,393.39 448.38,389.176 453.783,389.176 C459.185,389.176 463.565,393.39 463.565,398.588 z" fill="#000000"/>
      <path d="M504.5,399.088 C504.5,404.286 500.12,408.5 494.717,408.5 C489.315,408.5 484.935,404.286 484.935,399.088 C484.935,393.89 489.315,389.676 494.717,389.676 C500.12,389.676 504.5,393.89 504.5,399.088 z" fill-opacity="0" stroke="#000000" stroke-width="1"/>
    </g>
    <g id="O">
      <path d="M43.565,465.412 C43.565,470.61 39.185,474.824 33.783,474.824 C28.38,474.824 24,470.61 24,465.412 C24,460.214 28.38,456 33.783,456 C39.185,456 43.565,460.214 43.565,465.412 z" fill="#000000"/>
      <path d="M84.5,465.912 C84.5,471.11 80.12,475.324 74.717,475.324 C69.315,475.324 64.935,471.11 64.935,465.912 C64.935,460.714 69.315,456.5 74.717,456.5 C80.12,456.5 84.5,460.714 84.5,465.912 z" fill-opacity="0" stroke="#000000" stroke-width="1"/>
      <path d="M44.065,504.814 C44.065,510.012 39.685,514.225 34.283,514.225 C28.88,514.225 24.5,510.012 24.5,504.814 C24.5,499.616 28.88,495.402 34.283,495.402 C39.685,495.402 44.065,499.616 44.065,504.814 z" fill-opacity="0" stroke="#000000" stroke-width="1"/>
      <path d="M84,504.314 C84,509.512 79.62,513.725 74.217,513.725 C68.815,513.725 64.435,509.512 64.435,504.314 C64.435,499.116 68.815,494.902 74.217,494.902 C79.62,494.902 84,499.116 84,504.314 z" fill="#000000"/>
      <path d="M43.565,542.588 C43.565,547.786 39.185,552 33.783,552 C28.38,552 24,547.786 24,542.588 C24,537.39 28.38,533.176 33.783,533.176 C39.185,533.176 43.565,537.39 43.565,542.588 z" fill="#000000"/>
      <path d="M84.5,543.088 C84.5,548.286 80.12,552.5 74.717,552.5 C69.315,552.5 64.935,548.286 64.935,543.088 C64.935,537.89 69.315,533.676 74.717,533.676 C80.12,533.676 84.5,537.89 84.5,543.088 z" fill-opacity="0" stroke="#000000" stroke-width="1"/>
    </g>
    <g id="Ó">
      <g>
        <path d="M168,465.412 C168,470.61 163.62,474.824 158.217,474.824 C152.815,474.824 148.435,470.61 148.435,465.412 C148.435,460.214 152.815,456 158.217,456 C163.62,456 168,460.214 168,465.412 z" fill="#000000"/>
        <path d="M127.565,504.314 C127.565,509.512 123.185,513.725 117.783,513.725 C112.38,513.725 108,509.512 108,504.314 C108,499.116 112.38,494.902 117.783,494.902 C123.185,494.902 127.565,499.116 127.565,504.314 z" fill="#000000"/>
        <path d="M168,542.588 C168,547.786 163.62,552 158.217,552 C152.815,552 148.435,547.786 148.435,542.588 C148.435,537.39 152.815,533.176 158.217,533.176 C163.62,533.176 168,537.39 168,542.588 z" fill="#000000"/>
      </g>
      <g>
        <path d="M128.065,465.912 C128.065,471.11 123.685,475.324 118.283,475.324 C112.88,475.324 108.5,471.11 108.5,465.912 C108.5,460.714 112.88,456.5 118.283,456.5 C123.685,456.5 128.065,460.714 128.065,465.912 z" fill-opacity="0" stroke="#000000" stroke-width="1"/>
        <path d="M168.5,504.814 C168.5,510.012 164.12,514.225 158.717,514.225 C153.315,514.225 148.935,510.012 148.935,504.814 C148.935,499.616 153.315,495.402 158.717,495.402 C164.12,495.402 168.5,499.616 168.5,504.814 z" fill-opacity="0" stroke="#000000" stroke-width="1"/>
        <path d="M128.065,543.088 C128.065,548.286 123.685,552.5 118.283,552.5 C112.88,552.5 108.5,548.286 108.5,543.088 C108.5,537.89 112.88,533.676 118.283,533.676 C123.685,533.676 128.065,537.89 128.065,543.088 z" fill-opacity="0" stroke="#000000" stroke-width="1"/>
      </g>
    </g>
    <g id="P">
      <path d="M211.565,465.412 C211.565,470.61 207.185,474.824 201.783,474.824 C196.38,474.824 192,470.61 192,465.412 C192,460.214 196.38,456 201.783,456 C207.185,456 211.565,460.214 211.565,465.412 z" fill="#000000"/>
      <path d="M252,465.412 C252,470.61 247.62,474.824 242.217,474.824 C236.815,474.824 232.435,470.61 232.435,465.412 C232.435,460.214 236.815,456 242.217,456 C247.62,456 252,460.214 252,465.412 z" fill="#000000"/>
      <path d="M211.565,504.314 C211.565,509.512 207.185,513.725 201.783,513.725 C196.38,513.725 192,509.512 192,504.314 C192,499.116 196.38,494.902 201.783,494.902 C207.185,494.902 211.565,499.116 211.565,504.314 z" fill="#000000"/>
      <path d="M252.5,504.814 C252.5,510.012 248.12,514.225 242.717,514.225 C237.315,514.225 232.935,510.012 232.935,504.814 C232.935,499.616 237.315,495.402 242.717,495.402 C248.12,495.402 252.5,499.616 252.5,504.814 z" fill-opacity="0" stroke="#000000" stroke-width="1"/>
      <path d="M211.565,542.588 C211.565,547.786 207.185,552 201.783,552 C196.38,552 192,547.786 192,542.588 C192,537.39 196.38,533.176 201.783,533.176 C207.185,533.176 211.565,537.39 211.565,542.588 z" fill="#000000"/>
      <path d="M252.5,543.088 C252.5,548.286 248.12,552.5 242.717,552.5 C237.315,552.5 232.935,548.286 232.935,543.088 C232.935,537.89 237.315,533.676 242.717,533.676 C248.12,533.676 252.5,537.89 252.5,543.088 z" fill-opacity="0" stroke="#000000" stroke-width="1"/>
    </g>
    <g id="R">
      <path d="M379.565,465.412 C379.565,470.61 375.185,474.824 369.783,474.824 C364.38,474.824 360,470.61 360,465.412 C360,460.214 364.38,456 369.783,456 C375.185,456 379.565,460.214 379.565,465.412 z" fill="#000000"/>
      <path d="M420.5,465.912 C420.5,471.11 416.12,475.324 410.717,475.324 C405.315,475.324 400.935,471.11 400.935,465.912 C400.935,460.714 405.315,456.5 410.717,456.5 C416.12,456.5 420.5,460.714 420.5,465.912 z" fill-opacity="0" stroke="#000000" stroke-width="1"/>
      <path d="M379.565,504.314 C379.565,509.512 375.185,513.725 369.783,513.725 C364.38,513.725 360,509.512 360,504.314 C360,499.116 364.38,494.902 369.783,494.902 C375.185,494.902 379.565,499.116 379.565,504.314 z" fill="#000000"/>
      <path d="M420,504.314 C420,509.512 415.62,513.725 410.217,513.725 C404.815,513.725 400.435,509.512 400.435,504.314 C400.435,499.116 404.815,494.902 410.217,494.902 C415.62,494.902 420,499.116 420,504.314 z" fill="#000000"/>
      <path d="M379.565,542.588 C379.565,547.786 375.185,552 369.783,552 C364.38,552 360,547.786 360,542.588 C360,537.39 364.38,533.176 369.783,533.176 C375.185,533.176 379.565,537.39 379.565,542.588 z" fill="#000000"/>
      <path d="M420.5,543.088 C420.5,548.286 416.12,552.5 410.717,552.5 C405.315,552.5 400.935,548.286 400.935,543.088 C400.935,537.89 405.315,533.676 410.717,533.676 C416.12,533.676 420.5,537.89 420.5,543.088 z" fill-opacity="0" stroke="#000000" stroke-width="1"/>
    </g>
    <g id="S">
      <path d="M548.065,465.912 C548.065,471.11 543.685,475.324 538.283,475.324 C532.88,475.324 528.5,471.11 528.5,465.912 C528.5,460.714 532.88,456.5 538.283,456.5 C543.685,456.5 548.065,460.714 548.065,465.912 z" fill-opacity="0" stroke="#000000" stroke-width="1"/>
      <path d="M588,465.412 C588,470.61 583.62,474.824 578.217,474.824 C572.815,474.824 568.435,470.61 568.435,465.412 C568.435,460.214 572.815,456 578.217,456 C583.62,456 588,460.214 588,465.412 z" fill="#000000"/>
      <path d="M547.565,504.314 C547.565,509.512 543.185,513.725 537.783,513.725 C532.38,513.725 528,509.512 528,504.314 C528,499.116 532.38,494.902 537.783,494.902 C543.185,494.902 547.565,499.116 547.565,504.314 z" fill="#000000"/>
      <path d="M588.5,504.814 C588.5,510.012 584.12,514.225 578.717,514.225 C573.315,514.225 568.935,510.012 568.935,504.814 C568.935,499.616 573.315,495.402 578.717,495.402 C584.12,495.402 588.5,499.616 588.5,504.814 z" fill-opacity="0" stroke="#000000" stroke-width="1"/>
      <path d="M547.565,542.588 C547.565,547.786 543.185,552 537.783,552 C532.38,552 528,547.786 528,542.588 C528,537.39 532.38,533.176 537.783,533.176 C543.185,533.176 547.565,537.39 547.565,542.588 z" fill="#000000"/>
      <path d="M588.5,543.088 C588.5,548.286 584.12,552.5 578.717,552.5 C573.315,552.5 568.935,548.286 568.935,543.088 C568.935,537.89 573.315,533.676 578.717,533.676 C584.12,533.676 588.5,537.89 588.5,543.088 z" fill-opacity="0" stroke="#000000" stroke-width="1"/>
    </g>
    <g id="Š">
      <path d="M43.565,609.412 C43.565,614.61 39.185,618.824 33.783,618.824 C28.38,618.824 24,614.61 24,609.412 C24,604.214 28.38,600 33.783,600 C39.185,600 43.565,604.214 43.565,609.412 z" fill="#000000"/>
      <path d="M84.5,609.912 C84.5,615.11 80.12,619.324 74.717,619.324 C69.315,619.324 64.935,615.11 64.935,609.912 C64.935,604.714 69.315,600.5 74.717,600.5 C80.12,600.5 84.5,604.714 84.5,609.912 z" fill-opacity="0" stroke="#000000" stroke-width="1"/>
      <path d="M44.065,648.814 C44.065,654.012 39.685,658.225 34.283,658.225 C28.88,658.225 24.5,654.012 24.5,648.814 C24.5,643.616 28.88,639.402 34.283,639.402 C39.685,639.402 44.065,643.616 44.065,648.814 z" fill-opacity="0" stroke="#000000" stroke-width="1"/>
      <path d="M84,648.314 C84,653.512 79.62,657.725 74.217,657.725 C68.815,657.725 64.435,653.512 64.435,648.314 C64.435,643.116 68.815,638.902 74.217,638.902 C79.62,638.902 84,643.116 84,648.314 z" fill="#000000"/>
      <path d="M44.065,687.088 C44.065,692.286 39.685,696.5 34.283,696.5 C28.88,696.5 24.5,692.286 24.5,687.088 C24.5,681.89 28.88,677.676 34.283,677.676 C39.685,677.676 44.065,681.89 44.065,687.088 z" fill-opacity="0" stroke="#000000" stroke-width="1"/>
      <path d="M84,686.588 C84,691.786 79.62,696 74.217,696 C68.815,696 64.435,691.786 64.435,686.588 C64.435,681.39 68.815,677.176 74.217,677.176 C79.62,677.176 84,681.39 84,686.588 z" fill="#000000"/>
    </g>
    <g id="T">
      <path d="M128.065,609.912 C128.065,615.11 123.685,619.324 118.283,619.324 C112.88,619.324 108.5,615.11 108.5,609.912 C108.5,604.714 112.88,600.5 118.283,600.5 C123.685,600.5 128.065,604.714 128.065,609.912 z" fill-opacity="0" stroke="#000000" stroke-width="1"/>
      <path d="M168,609.412 C168,614.61 163.62,618.824 158.217,618.824 C152.815,618.824 148.435,614.61 148.435,609.412 C148.435,604.214 152.815,600 158.217,600 C163.62,600 168,604.214 168,609.412 z" fill="#000000"/>
      <path d="M127.565,648.314 C127.565,653.512 123.185,657.725 117.783,657.725 C112.38,657.725 108,653.512 108,648.314 C108,643.116 112.38,638.902 117.783,638.902 C123.185,638.902 127.565,643.116 127.565,648.314 z" fill="#000000"/>
      <path d="M168,648.314 C168,653.512 163.62,657.725 158.217,657.725 C152.815,657.725 148.435,653.512 148.435,648.314 C148.435,643.116 152.815,638.902 158.217,638.902 C163.62,638.902 168,643.116 168,648.314 z" fill="#000000"/>
      <path d="M127.565,686.588 C127.565,691.786 123.185,696 117.783,696 C112.38,696 108,691.786 108,686.588 C108,681.39 112.38,677.176 117.783,677.176 C123.185,677.176 127.565,681.39 127.565,686.588 z" fill="#000000"/>
      <path d="M168.5,687.088 C168.5,692.286 164.12,696.5 158.717,696.5 C153.315,696.5 148.935,692.286 148.935,687.088 C148.935,681.89 153.315,677.676 158.717,677.676 C164.12,677.676 168.5,681.89 168.5,687.088 z" fill-opacity="0" stroke="#000000" stroke-width="1"/>
    </g>
    <g id="Ť">
      <path d="M211.565,609.412 C211.565,614.61 207.185,618.824 201.783,618.824 C196.38,618.824 192,614.61 192,609.412 C192,604.214 196.38,600 201.783,600 C207.185,600 211.565,604.214 211.565,609.412 z" fill="#000000"/>
      <path d="M252.5,609.912 C252.5,615.11 248.12,619.324 242.717,619.324 C237.315,619.324 232.935,615.11 232.935,609.912 C232.935,604.714 237.315,600.5 242.717,600.5 C248.12,600.5 252.5,604.714 252.5,609.912 z" fill-opacity="0" stroke="#000000" stroke-width="1"/>
      <path d="M211.565,648.314 C211.565,653.512 207.185,657.725 201.783,657.725 C196.38,657.725 192,653.512 192,648.314 C192,643.116 196.38,638.902 201.783,638.902 C207.185,638.902 211.565,643.116 211.565,648.314 z" fill="#000000"/>
      <path d="M252,648.314 C252,653.512 247.62,657.725 242.217,657.725 C236.815,657.725 232.435,653.512 232.435,648.314 C232.435,643.116 236.815,638.902 242.217,638.902 C247.62,638.902 252,643.116 252,648.314 z" fill="#000000"/>
      <path d="M212.065,687.088 C212.065,692.286 207.685,696.5 202.283,696.5 C196.88,696.5 192.5,692.286 192.5,687.088 C192.5,681.89 196.88,677.676 202.283,677.676 C207.685,677.676 212.065,681.89 212.065,687.088 z" fill-opacity="0" stroke="#000000" stroke-width="1"/>
      <path d="M252,686.588 C252,691.786 247.62,696 242.217,696 C236.815,696 232.435,691.786 232.435,686.588 C232.435,681.39 236.815,677.176 242.217,677.176 C247.62,677.176 252,681.39 252,686.588 z" fill="#000000"/>
    </g>
    <g id="U">
      <path d="M295.565,609.412 C295.565,614.61 291.185,618.824 285.783,618.824 C280.38,618.824 276,614.61 276,609.412 C276,604.214 280.38,600 285.783,600 C291.185,600 295.565,604.214 295.565,609.412 z" fill="#000000"/>
      <path d="M336.5,609.912 C336.5,615.11 332.12,619.324 326.717,619.324 C321.315,619.324 316.935,615.11 316.935,609.912 C316.935,604.714 321.315,600.5 326.717,600.5 C332.12,600.5 336.5,604.714 336.5,609.912 z" fill-opacity="0" stroke="#000000" stroke-width="1"/>
      <path d="M296.065,648.814 C296.065,654.012 291.685,658.225 286.283,658.225 C280.88,658.225 276.5,654.012 276.5,648.814 C276.5,643.616 280.88,639.402 286.283,639.402 C291.685,639.402 296.065,643.616 296.065,648.814 z" fill-opacity="0" stroke="#000000" stroke-width="1"/>
      <path d="M336.5,648.814 C336.5,654.012 332.12,658.225 326.717,658.225 C321.315,658.225 316.935,654.012 316.935,648.814 C316.935,643.616 321.315,639.402 326.717,639.402 C332.12,639.402 336.5,643.616 336.5,648.814 z" fill-opacity="0" stroke="#000000" stroke-width="1"/>
      <path d="M295.565,686.588 C295.565,691.786 291.185,696 285.783,696 C280.38,696 276,691.786 276,686.588 C276,681.39 280.38,677.176 285.783,677.176 C291.185,677.176 295.565,681.39 295.565,686.588 z" fill="#000000"/>
      <path d="M336,686.588 C336,691.786 331.62,696 326.217,696 C320.815,696 316.435,691.786 316.435,686.588 C316.435,681.39 320.815,677.176 326.217,677.176 C331.62,677.176 336,681.39 336,686.588 z" fill="#000000"/>
    </g>
    <g id="Ů">
      <path d="M463.739,609.943 C463.739,614.984 459.505,619.07 454.283,619.07 C449.06,619.07 444.826,614.984 444.826,609.943 C444.826,604.901 449.06,600.815 454.283,600.815 C459.505,600.815 463.739,604.901 463.739,609.943 z" fill-opacity="0" stroke="#000000" stroke-width="1"/>
      <path d="M504,609.443 C504,614.658 499.62,618.885 494.217,618.885 C488.815,618.885 484.435,614.658 484.435,609.443 C484.435,604.228 488.815,600 494.217,600 C499.62,600 504,604.228 504,609.443 z" fill="#000000"/>
      <path d="M463.565,648 C463.565,653.215 459.185,657.443 453.783,657.443 C448.38,657.443 444,653.215 444,648 C444,642.785 448.38,638.557 453.783,638.557 C459.185,638.557 463.565,642.785 463.565,648 z" fill="#000000"/>
      <path d="M504,648 C504,653.215 499.62,657.443 494.217,657.443 C488.815,657.443 484.435,653.215 484.435,648 C484.435,642.785 488.815,638.557 494.217,638.557 C499.62,638.557 504,642.785 504,648 z" fill="#000000"/>
      <path d="M463.565,686.557 C463.565,691.772 459.185,696 453.783,696 C448.38,696 444,691.772 444,686.557 C444,681.342 448.38,677.115 453.783,677.115 C459.185,677.115 463.565,681.342 463.565,686.557 z" fill="#000000"/>
      <path d="M504,686.557 C504,691.772 499.62,696 494.217,696 C488.815,696 484.435,691.772 484.435,686.557 C484.435,681.342 488.815,677.115 494.217,677.115 C499.62,677.115 504,681.342 504,686.557 z" fill="#000000"/>
    </g>
    <g id="V">
      <path d="M547.565,609.412 C547.565,614.61 543.185,618.824 537.783,618.824 C532.38,618.824 528,614.61 528,609.412 C528,604.214 532.38,600 537.783,600 C543.185,600 547.565,604.214 547.565,609.412 z" fill="#000000"/>
      <path d="M588.5,609.912 C588.5,615.11 584.12,619.324 578.717,619.324 C573.315,619.324 568.935,615.11 568.935,609.912 C568.935,604.714 573.315,600.5 578.717,600.5 C584.12,600.5 588.5,604.714 588.5,609.912 z" fill-opacity="0" stroke="#000000" stroke-width="1"/>
      <path d="M547.565,648.314 C547.565,653.512 543.185,657.725 537.783,657.725 C532.38,657.725 528,653.512 528,648.314 C528,643.116 532.38,638.902 537.783,638.902 C543.185,638.902 547.565,643.116 547.565,648.314 z" fill="#000000"/>
      <path d="M588.5,648.814 C588.5,654.012 584.12,658.225 578.717,658.225 C573.315,658.225 568.935,654.012 568.935,648.814 C568.935,643.616 573.315,639.402 578.717,639.402 C584.12,639.402 588.5,643.616 588.5,648.814 z" fill-opacity="0" stroke="#000000" stroke-width="1"/>
      <path d="M547.565,686.588 C547.565,691.786 543.185,696 537.783,696 C532.38,696 528,691.786 528,686.588 C528,681.39 532.38,677.176 537.783,677.176 C543.185,677.176 547.565,681.39 547.565,686.588 z" fill="#000000"/>
      <path d="M588,686.588 C588,691.786 583.62,696 578.217,696 C572.815,696 568.435,691.786 568.435,686.588 C568.435,681.39 572.815,677.176 578.217,677.176 C583.62,677.176 588,681.39 588,686.588 z" fill="#000000"/>
    </g>
    <g id="Y">
      <path d="M127.565,753.412 C127.565,758.61 123.185,762.824 117.783,762.824 C112.38,762.824 108,758.61 108,753.412 C108,748.214 112.38,744 117.783,744 C123.185,744 127.565,748.214 127.565,753.412 z" fill="#000000"/>
      <path d="M168,753.412 C168,758.61 163.62,762.824 158.217,762.824 C152.815,762.824 148.435,758.61 148.435,753.412 C148.435,748.214 152.815,744 158.217,744 C163.62,744 168,748.214 168,753.412 z" fill="#000000"/>
      <path d="M128.065,792.814 C128.065,798.012 123.685,802.225 118.283,802.225 C112.88,802.225 108.5,798.012 108.5,792.814 C108.5,787.616 112.88,783.402 118.283,783.402 C123.685,783.402 128.065,787.616 128.065,792.814 z" fill-opacity="0" stroke="#000000" stroke-width="1"/>
      <path d="M168,792.314 C168,797.512 163.62,801.725 158.217,801.725 C152.815,801.725 148.435,797.512 148.435,792.314 C148.435,787.116 152.815,782.902 158.217,782.902 C163.62,782.902 168,787.116 168,792.314 z" fill="#000000"/>
      <path d="M127.565,830.588 C127.565,835.786 123.185,840 117.783,840 C112.38,840 108,835.786 108,830.588 C108,825.39 112.38,821.176 117.783,821.176 C123.185,821.176 127.565,825.39 127.565,830.588 z" fill="#000000"/>
      <path d="M168,830.588 C168,835.786 163.62,840 158.217,840 C152.815,840 148.435,835.786 148.435,830.588 C148.435,825.39 152.815,821.176 158.217,821.176 C163.62,821.176 168,825.39 168,830.588 z" fill="#000000"/>
    </g>
    <g id="Z">
      <path d="M295.565,753.412 C295.565,758.61 291.185,762.824 285.783,762.824 C280.38,762.824 276,758.61 276,753.412 C276,748.214 280.38,744 285.783,744 C291.185,744 295.565,748.214 295.565,753.412 z" fill="#000000"/>
      <path d="M336.5,753.912 C336.5,759.11 332.12,763.324 326.717,763.324 C321.315,763.324 316.935,759.11 316.935,753.912 C316.935,748.714 321.315,744.5 326.717,744.5 C332.12,744.5 336.5,748.714 336.5,753.912 z" fill-opacity="0" stroke="#000000" stroke-width="1"/>
      <path d="M296.065,792.814 C296.065,798.012 291.685,802.225 286.283,802.225 C280.88,802.225 276.5,798.012 276.5,792.814 C276.5,787.616 280.88,783.402 286.283,783.402 C291.685,783.402 296.065,787.616 296.065,792.814 z" fill-opacity="0" stroke="#000000" stroke-width="1"/>
      <path d="M336,792.314 C336,797.512 331.62,801.725 326.217,801.725 C320.815,801.725 316.435,797.512 316.435,792.314 C316.435,787.116 320.815,782.902 326.217,782.902 C331.62,782.902 336,787.116 336,792.314 z" fill="#000000"/>
      <path d="M295.565,830.588 C295.565,835.786 291.185,840 285.783,840 C280.38,840 276,835.786 276,830.588 C276,825.39 280.38,821.176 285.783,821.176 C291.185,821.176 295.565,825.39 295.565,830.588 z" fill="#000000"/>
      <path d="M336,830.588 C336,835.786 331.62,840 326.217,840 C320.815,840 316.435,835.786 316.435,830.588 C316.435,825.39 320.815,821.176 326.217,821.176 C331.62,821.176 336,825.39 336,830.588 z" fill="#000000"/>
    </g>
    <g id="#">
      <path d="M464.065,753.912 C464.065,759.11 459.685,763.324 454.283,763.324 C448.88,763.324 444.5,759.11 444.5,753.912 C444.5,748.714 448.88,744.5 454.283,744.5 C459.685,744.5 464.065,748.714 464.065,753.912 z" fill-opacity="0" stroke="#000000" stroke-width="1"/>
      <path d="M504,753.412 C504,758.61 499.62,762.824 494.217,762.824 C488.815,762.824 484.435,758.61 484.435,753.412 C484.435,748.214 488.815,744 494.217,744 C499.62,744 504,748.214 504,753.412 z" fill="#000000"/>
      <path d="M464.065,792.814 C464.065,798.012 459.685,802.225 454.283,802.225 C448.88,802.225 444.5,798.012 444.5,792.814 C444.5,787.616 448.88,783.402 454.283,783.402 C459.685,783.402 464.065,787.616 464.065,792.814 z" fill-opacity="0" stroke="#000000" stroke-width="1"/>
      <path d="M504,792.314 C504,797.512 499.62,801.725 494.217,801.725 C488.815,801.725 484.435,797.512 484.435,792.314 C484.435,787.116 488.815,782.902 494.217,782.902 C499.62,782.902 504,787.116 504,792.314 z" fill="#000000"/>
      <path d="M463.565,830.588 C463.565,835.786 459.185,840 453.783,840 C448.38,840 444,835.786 444,830.588 C444,825.39 448.38,821.176 453.783,821.176 C459.185,821.176 463.565,825.39 463.565,830.588 z" fill="#000000"/>
      <path d="M504,830.588 C504,835.786 499.62,840 494.217,840 C488.815,840 484.435,835.786 484.435,830.588 C484.435,825.39 488.815,821.176 494.217,821.176 C499.62,821.176 504,825.39 504,830.588 z" fill="#000000"/>
    </g>
    <g id="^">
      <path d="M548.065,753.912 C548.065,759.11 543.685,763.324 538.283,763.324 C532.88,763.324 528.5,759.11 528.5,753.912 C528.5,748.714 532.88,744.5 538.283,744.5 C543.685,744.5 548.065,748.714 548.065,753.912 z" fill-opacity="0" stroke="#000000" stroke-width="1"/>
      <path d="M588.5,753.912 C588.5,759.11 584.12,763.324 578.717,763.324 C573.315,763.324 568.935,759.11 568.935,753.912 C568.935,748.714 573.315,744.5 578.717,744.5 C584.12,744.5 588.5,748.714 588.5,753.912 z" fill-opacity="0" stroke="#000000" stroke-width="1"/>
      <path d="M548.065,792.814 C548.065,798.012 543.685,802.225 538.283,802.225 C532.88,802.225 528.5,798.012 528.5,792.814 C528.5,787.616 532.88,783.402 538.283,783.402 C543.685,783.402 548.065,787.616 548.065,792.814 z" fill-opacity="0" stroke="#000000" stroke-width="1"/>
      <path d="M588.5,792.814 C588.5,798.012 584.12,802.225 578.717,802.225 C573.315,802.225 568.935,798.012 568.935,792.814 C568.935,787.616 573.315,783.402 578.717,783.402 C584.12,783.402 588.5,787.616 588.5,792.814 z" fill-opacity="0" stroke="#000000" stroke-width="1"/>
      <path d="M548.065,831.088 C548.065,836.286 543.685,840.5 538.283,840.5 C532.88,840.5 528.5,836.286 528.5,831.088 C528.5,825.89 532.88,821.676 538.283,821.676 C543.685,821.676 548.065,825.89 548.065,831.088 z" fill-opacity="0" stroke="#000000" stroke-width="1"/>
      <path d="M588,830.588 C588,835.786 583.62,840 578.217,840 C572.815,840 568.435,835.786 568.435,830.588 C568.435,825.39 572.815,821.176 578.217,821.176 C583.62,821.176 588,825.39 588,830.588 z" fill="#000000"/>
    </g>
  </g>
  <g id="Latinka">
    <text transform="matrix(1, 0, 0, 1, 55, 144)">
      <tspan x="-13.671" y="6" font-family="HelveticaNeue-Bold" font-size="18" fill="#000000">A 1</tspan>
    </text>
    <text transform="matrix(1, 0, 0, 1, 139, 144)">
      <tspan x="-6.165" y="6" font-family="HelveticaNeue-Bold" font-size="18" fill="#000000">Á</tspan>
    </text>
    <text transform="matrix(1, 0, 0, 1, 223, 144)">
      <tspan x="-13.842" y="6" font-family="HelveticaNeue-Bold" font-size="18" fill="#000000">B 2</tspan>
    </text>
    <text transform="matrix(1, 0, 0, 1, 307, 144)">
      <tspan x="-14.175" y="6" font-family="HelveticaNeue-Bold" font-size="18" fill="#000000">C 3</tspan>
    </text>
    <text transform="matrix(1, 0, 0, 1, 391, 144)">
      <tspan x="-5.166" y="6" font-family="HelveticaNeue-Bold" font-size="18" fill="#000000">č</tspan>
    </text>
    <text transform="matrix(1, 0, 0, 1, 475, 144)">
      <tspan x="-14.175" y="6" font-family="HelveticaNeue-Bold" font-size="18" fill="#000000">D 4</tspan>
    </text>
    <text transform="matrix(1, 0, 0, 1, 559, 143.5)">
      <tspan x="-6.669" y="6.5" font-family="HelveticaNeue-Bold" font-size="18" fill="#000000">Ď</tspan>
    </text>
    <text transform="matrix(1, 0, 0, 1, 55, 288)">
      <tspan x="-13.338" y="6" font-family="HelveticaNeue-Bold" font-size="18" fill="#000000">E 5</tspan>
    </text>
    <text transform="matrix(1, 0, 0, 1, 139, 288)">
      <tspan x="-5.832" y="6" font-family="HelveticaNeue-Bold" font-size="18" fill="#000000">É</tspan>
    </text>
    <text transform="matrix(1, 0, 0, 1, 223, 288)">
      <tspan x="-5.832" y="6" font-family="HelveticaNeue-Bold" font-size="18" fill="#000000">Ě</tspan>
    </text>
    <text transform="matrix(1, 0, 0, 1, 391, 288)">
      <tspan x="-14.337" y="6" font-family="HelveticaNeue-Bold" font-size="18" fill="#000000">G 7</tspan>
    </text>
    <text transform="matrix(1, 0, 0, 1, 475, 288)">
      <tspan x="-14.175" y="6" font-family="HelveticaNeue-Bold" font-size="18" fill="#000000">H 8</tspan>
    </text>
    <text transform="matrix(1, 0, 0, 1, 559, 288)">
      <tspan x="-10.161" y="6" font-family="HelveticaNeue-Bold" font-size="18" fill="#000000">I 9</tspan>
    </text>
    <text transform="matrix(1, 0, 0, 1, 55, 432)">
      <tspan x="-2.655" y="6" font-family="HelveticaNeue-Bold" font-size="18" fill="#000000">Í</tspan>
    </text>
    <text transform="matrix(1, 0, 0, 1, 139, 431.5)">
      <tspan x="-5.004" y="6.5" font-family="HelveticaNeue-Bold" font-size="18" fill="#000000">J</tspan>
    </text>
    <text transform="matrix(1, 0, 0, 1, 223, 432)">
      <tspan x="-6.498" y="6" font-family="HelveticaNeue-Bold" font-size="18" fill="#000000">K</tspan>
    </text>
    <text transform="matrix(1, 0, 0, 1, 307, 432)">
      <tspan x="-5.337" y="6" font-family="HelveticaNeue-Bold" font-size="18" fill="#000000">L</tspan>
    </text>
    <text transform="matrix(1, 0, 0, 1, 391, 432)">
      <tspan x="-8.163" y="6" font-family="HelveticaNeue-Bold" font-size="18" fill="#000000">M</tspan>
    </text>
    <text transform="matrix(1, 0, 0, 1, 475, 432)">
      <tspan x="-6.669" y="6" font-family="HelveticaNeue-Bold" font-size="18" fill="#000000">N</tspan>
    </text>
    <text transform="matrix(1, 0, 0, 1, 55, 576)">
      <tspan x="-7.002" y="6" font-family="HelveticaNeue-Bold" font-size="18" fill="#000000">O</tspan>
    </text>
    <text transform="matrix(1, 0, 0, 1, 139, 576)">
      <tspan x="-7.002" y="6" font-family="HelveticaNeue-Bold" font-size="18" fill="#000000">Ó</tspan>
    </text>
    <text transform="matrix(1, 0, 0, 1, 223, 576)">
      <tspan x="-6.003" y="6" font-family="HelveticaNeue-Bold" font-size="18" fill="#000000">P</tspan>
    </text>
    <text transform="matrix(1, 0, 0, 1, 391, 576)">
      <tspan x="-6.498" y="6" font-family="HelveticaNeue-Bold" font-size="18" fill="#000000">R</tspan>
    </text>
    <text transform="matrix(1, 0, 0, 1, 559, 576)">
      <tspan x="-5.841" y="6" font-family="HelveticaNeue-Bold" font-size="18" fill="#000000">S</tspan>
    </text>
    <text transform="matrix(1, 0, 0, 1, 55, 719.5)">
      <tspan x="-5.841" y="6.5" font-family="HelveticaNeue-Bold" font-size="18" fill="#000000">Š</tspan>
    </text>
    <text transform="matrix(1, 0, 0, 1, 139, 720)">
      <tspan x="-5.499" y="6" font-family="HelveticaNeue-Bold" font-size="18" fill="#000000">T</tspan>
    </text>
    <text transform="matrix(1, 0, 0, 1, 223, 719.5)">
      <tspan x="-5.499" y="6.5" font-family="HelveticaNeue-Bold" font-size="18" fill="#000000">Ť</tspan>
    </text>
    <text transform="matrix(1, 0, 0, 1, 307, 720)">
      <tspan x="-6.669" y="6" font-family="HelveticaNeue-Bold" font-size="18" fill="#000000">U</tspan>
    </text>
    <text transform="matrix(1, 0, 0, 1, 475, 720)">
      <tspan x="-6.669" y="6" font-family="HelveticaNeue-Bold" font-size="18" fill="#000000">Ů</tspan>
    </text>
    <text transform="matrix(1, 0, 0, 1, 559, 720)">
      <tspan x="-5.67" y="6" font-family="HelveticaNeue-Bold" font-size="18" fill="#000000">V</tspan>
    </text>
    <text transform="matrix(1, 0, 0, 1, 475, 864)">
      <tspan x="-5.004" y="6" font-family="HelveticaNeue-Bold" font-size="18" fill="#000000">#</tspan>
    </text>
    <text transform="matrix(1, 0, 0, 1, 559, 863.5)">
      <tspan x="-5.4" y="6.5" font-family="HelveticaNeue-Bold" font-size="18" fill="#000000">^</tspan>
    </text>
    <text transform="matrix(1, 0, 0, 1, 139, 864)">
      <tspan x="-6.003" y="6" font-family="HelveticaNeue-Bold" font-size="18" fill="#000000">Y</tspan>
    </text>
    <text transform="matrix(1, 0, 0, 1, 307, 864)">
      <tspan x="-5.832" y="6" font-family="HelveticaNeue-Bold" font-size="18" fill="#000000">Z</tspan>
    </text>
  </g>
</svg>
